<?xml version="1.0" encoding="utf-8"?>
<!-- Generator: Adobe Illustrator 22.0.0, SVG Export Plug-In . SVG Version: 6.00 Build 0)  -->
<svg version="1.1"
	 id="svg2" inkscape:export-filename="G:\Users\suitedoalex\sites\pix-bc-logo-0.png" inkscape:export-xdpi="561.73712" inkscape:export-ydpi="561.73712" inkscape:version="0.92.4 (5da689c313, 2019-01-14)" sodipodi:docname="pix-banco-central-logo.svg" xmlns:cc="http://creativecommons.org/ns#" xmlns:dc="http://purl.org/dc/elements/1.1/" xmlns:inkscape="http://www.inkscape.org/namespaces/inkscape" xmlns:rdf="http://www.w3.org/1999/02/22-rdf-syntax-ns#" xmlns:sodipodi="http://sodipodi.sourceforge.net/DTD/sodipodi-0.dtd" xmlns:svg="http://www.w3.org/2000/svg"
	 xmlns="http://www.w3.org/2000/svg" xmlns:xlink="http://www.w3.org/1999/xlink" x="0px" y="0px" viewBox="0 0 544 206"
	 style="enable-background:new 0 0 544 206;" xml:space="preserve">
<style type="text/css">
	.st0{clip-path:url(#SVGID_2_);}
	.st1{fill:none;stroke:#939598;stroke-width:8.059;stroke-linecap:round;stroke-linejoin:round;stroke-miterlimit:10;}
	.st2{fill:#32BCAD;}
</style>
<sodipodi:namedview  bordercolor="#666666" borderopacity="1" gridtolerance="10" guidetolerance="10" id="namedview4" inkscape:current-layer="g10" inkscape:cx="-338.87784" inkscape:cy="521.28724" inkscape:pageopacity="0" inkscape:pageshadow="2" inkscape:window-height="837" inkscape:window-maximized="1" inkscape:window-width="1600" inkscape:window-x="-8" inkscape:window-y="-8" inkscape:zoom="0.35923609" objecttolerance="10" pagecolor="#ffffff" showgrid="false">
	</sodipodi:namedview>
<g id="g10" transform="matrix(1.3333333,0,0,-1.3333333,0,700)" inkscape:groupmode="layer" inkscape:label="pix-banco-central-logo">
	
		<g id="g964" transform="matrix(0.5829914,0,0,0.5829914,-284.91265,-151.3235)" inkscape:export-filename="G:\Users\suitedoalex\sites\pix-bc-logo-4.png" inkscape:export-xdpi="76.860626" inkscape:export-ydpi="76.860626">
		<g>
			<defs>
				<rect id="SVGID_1_" x="113.4" y="438" width="1492.5" height="839.5"/>
			</defs>
			<clipPath id="SVGID_2_">
				<use xlink:href="#SVGID_1_"  style="overflow:visible;"/>
			</clipPath>
			<g id="g966" class="st0">
				<g id="g972" transform="translate(881.9583,610.8618)">
					<path id="path974" inkscape:connector-curvature="0" class="st1" d="M-100.3,317.8v130.9c0,24.1,19.5,43.6,43.6,43.6l38.6-0.1
						c24,0,43.4-19.5,43.4-43.5v-27.9c0-24.1-19.5-43.6-43.6-43.6h-54.6"/>
				</g>
				<g id="g976" transform="translate(1018.428,785.3266)">
					<path id="path978" inkscape:connector-curvature="0" class="st1" d="M-100.3,317.8h16.8c9.9,0,17.9-8,17.9-17.9v-97.7"/>
				</g>
				<g id="g980" transform="translate(1049.4836,800.4702)">
					<path id="path982" inkscape:connector-curvature="0" class="st2" d="M-100.3,317.8l-7.6,7.6c-1.9,1.9-1.9,4.9,0,6.8l7.6,7.6
						c1.9,1.9,5,1.9,6.8,0l7.6-7.6c1.9-1.9,1.9-4.9,0-6.8l-7.6-7.6C-95.4,315.9-98.5,315.9-100.3,317.8"/>
				</g>
				<g id="g984" transform="translate(1085.2297,785.4135)">
					<path id="path986" inkscape:connector-curvature="0" class="st1" d="M-100.3,317.8h16.6c8.6,0,16.8-3.4,22.8-9.4l38.9-38.9
						c5-5,13.2-5,18.2,0l38.7,38.7c6,6,14.2,9.4,22.8,9.4h13.5"/>
				</g>
				<g id="g988" transform="translate(1085.2297,670.5434)">
					<path id="path990" inkscape:connector-curvature="0" class="st1" d="M-100.3,317.8h16.6c8.6,0,16.8,3.4,22.8,9.4l38.9,38.9
						c5,5,13.2,5,18.2,0l38.7-38.7c6-6,14.2-9.4,22.8-9.4h13.5"/>
				</g>
				<g id="g992" transform="translate(782.8699,645.7084)">
					<path id="path994" inkscape:connector-curvature="0" class="st2" d="M-100.3,317.8c-8.3,0-16.2,3.2-22.1,9.1l-31.9,31.9
						c-2.2,2.2-6.1,2.2-8.4,0l-32-32c-5.9-5.9-13.7-9.1-22.1-9.1h-6.3l40.4-40.4c12.6-12.6,33.1-12.6,45.7,0l40.5,40.5H-100.3z"/>
				</g>
				<g id="g996" transform="translate(666.4241,758.5073)">
					<path id="path998" inkscape:connector-curvature="0" class="st2" d="M-100.3,317.8c8.3,0,16.2-3.2,22.1-9.1l32-32
						c2.3-2.3,6.1-2.3,8.4,0L-6,308.5c5.9,5.9,13.7,9.1,22.1,9.1h3.8l-40.5,40.5c-12.6,12.6-33.1,12.6-45.7,0l-40.4-40.4H-100.3z"/>
				</g>
				<g id="g1000" transform="translate(820.2131,724.8881)">
					<path id="path1002" inkscape:connector-curvature="0" class="st2" d="M-100.3,317.8l-24.5,24.5c-0.5-0.2-1.1-0.4-1.7-0.4h-11.1
						c-5.8,0-11.4-2.3-15.5-6.4l-31.9-31.9c-3-3-6.9-4.5-10.8-4.5c-3.9,0-7.8,1.5-10.8,4.5l-32,32c-4.1,4.1-9.7,6.4-15.5,6.4h-13.7
						c-0.6,0-1.1,0.1-1.6,0.3l-24.6-24.6c-12.6-12.6-12.6-33.1,0-45.7l24.6-24.6c0.5,0.2,1.1,0.3,1.6,0.3h13.7
						c5.8,0,11.4,2.3,15.5,6.4l32,32c5.8,5.8,15.9,5.8,21.6,0l31.9-31.9c4.1-4.1,9.7-6.4,15.5-6.4h11.1c0.6,0,1.2-0.1,1.7-0.4
						l24.5,24.5C-87.7,284.7-87.7,305.1-100.3,317.8"/>
				</g>
			</g>
		</g>
	</g>
</g>
</svg>
